<svg width="18" height="17" viewBox="0 0 18 17" fill="none" xmlns="http://www.w3.org/2000/svg">
<path d="M17.4922 4.10938L16.5391 9.33594C16.4604 9.76769 16.2329 10.1582 15.8959 10.4394C15.559 10.7206 15.1342 10.8748 14.6953 10.875H5.63281L5.97656 12.75H14.375C14.7458 12.75 15.1084 12.86 15.4167 13.066C15.725 13.272 15.9654 13.5649 16.1073 13.9075C16.2492 14.2501 16.2863 14.6271 16.214 14.9908C16.1416 15.3545 15.963 15.6886 15.7008 15.9508C15.4386 16.213 15.1045 16.3916 14.7408 16.464C14.3771 16.5363 14.0001 16.4992 13.6575 16.3573C13.3149 16.2154 13.022 15.975 12.816 15.6667C12.61 15.3584 12.5 14.9958 12.5 14.625C12.5001 14.4119 12.5371 14.2004 12.6094 14H8.01562C8.08793 14.2004 8.12493 14.4119 8.125 14.625C8.12556 14.9275 8.05292 15.2257 7.91327 15.494C7.77362 15.7624 7.57112 15.993 7.32303 16.1661C7.07495 16.3392 6.78866 16.4498 6.4886 16.4883C6.18854 16.5267 5.88363 16.4921 5.59987 16.3872C5.31612 16.2823 5.06197 16.1103 4.8591 15.8859C4.65623 15.6615 4.51067 15.3913 4.43485 15.0984C4.35903 14.8056 4.3552 14.4987 4.42368 14.204C4.49216 13.9094 4.63092 13.6357 4.82812 13.4062L2.66406 1.5H1.25C1.08424 1.5 0.925268 1.43415 0.808058 1.31694C0.690848 1.19973 0.625 1.04076 0.625 0.875C0.625 0.70924 0.690848 0.550268 0.808058 0.433058C0.925268 0.315848 1.08424 0.25 1.25 0.25H2.66406C2.95581 0.250638 3.23815 0.353308 3.46216 0.540222C3.68617 0.727136 3.83775 0.98652 3.89062 1.27344L4.27344 3.375H16.875C16.9662 3.37519 17.0563 3.39561 17.1387 3.43478C17.2211 3.47396 17.2938 3.53092 17.3516 3.60156C17.412 3.66999 17.4561 3.75127 17.4804 3.83925C17.5048 3.92723 17.5088 4.01961 17.4922 4.10938Z" fill="#C47F17"/>
</svg>
